<svg t="1706600367299" class="icon" viewBox="0 0 1024 1024" version="1.1" xmlns="http://www.w3.org/2000/svg" p-id="2313" width="200" height="200"><path d="M480.341333 657.834667a34.133333 34.133333 0 0 1-24.149333-9.984L317.184 508.842667A34.133333 34.133333 0 1 1 365.482667 460.8l139.008 138.752a34.133333 34.133333 0 0 1-24.149334 58.282667z" p-id="2314"></path><path d="M480.341333 657.834667a34.133333 34.133333 0 0 1-24.149333-58.282667l242.517333-242.432a34.133333 34.133333 0 1 1 48.213334 48.213333L504.490667 647.850667a34.133333 34.133333 0 0 1-24.149334 9.984z" p-id="2315"></path><path d="M512 918.954667a35.242667 35.242667 0 0 1-15.786667-3.754667c-262.058667-134.485333-418.133333-364.288-418.133333-614.4 0-17.92 0.853333-36.608 2.56-55.552a34.133333 34.133333 0 0 1 34.133333-31.061333h1.024c7.68 0 15.36 0.426667 22.784 0.426666a658.261333 658.261333 0 0 0 355.157334-104.192 34.133333 34.133333 0 0 1 36.778666 0 657.664 657.664 0 0 0 355.328 103.850667c7.424 0 15.104 0 22.613334-0.426667a34.133333 34.133333 0 0 1 35.157333 31.061334c1.706667 19.029333 2.56 37.717333 2.56 55.552 0 250.453333-156.416 480.256-418.133333 614.4a34.133333 34.133333 0 0 1-16.042667 4.096z m0-34.133334zM146.432 282.538667v17.92c0 219.477333 136.533333 422.4 365.909333 546.133333 229.461333-123.477333 365.909333-326.4 365.909334-546.133333v-17.92A726.442667 726.442667 0 0 1 512 179.2a726.528 726.528 0 0 1-365.568 103.338667z" p-id="2316"></path></svg>