<svg t="1706525335360" class="icon" viewBox="0 0 1024 1024" version="1.1" xmlns="http://www.w3.org/2000/svg" p-id="2896" width="200" height="200"><path d="M913.066667 804.352H110.933333a34.133333 34.133333 0 0 1-34.133333-34.133333V253.781333a34.133333 34.133333 0 0 1 34.133333-34.133333h802.133334a34.133333 34.133333 0 0 1 34.133333 34.133333v516.437334a34.133333 34.133333 0 0 1-34.133333 34.133333z m-768-68.266667h733.866666V287.914667H145.066667z" p-id="2897"></path><path d="M512 580.778667a34.133333 34.133333 0 0 1-20.138667-6.570667L90.794667 281.6A34.133333 34.133333 0 0 1 110.933333 219.648h802.133334a34.133333 34.133333 0 0 1 20.138666 61.952l-401.066666 292.864a34.133333 34.133333 0 0 1-20.138667 6.314667zM215.552 287.914667L512 504.405333l296.448-216.490666z" p-id="2898"></path></svg>