<svg t="1706525207997" class="icon" viewBox="0 0 1024 1024" version="1.1" xmlns="http://www.w3.org/2000/svg" p-id="2458" width="200" height="200"><path d="M855.466667 946.261333h-686.933334a34.133333 34.133333 0 0 1-34.133333-34.133333v-435.2a34.133333 34.133333 0 0 1 34.133333-34.133333h686.933334a34.133333 34.133333 0 0 1 34.133333 34.133333v435.2a34.133333 34.133333 0 0 1-34.133333 34.133333z m-652.8-68.266666h618.666666v-366.933334h-618.666666z" p-id="2459"></path><path d="M290.133333 511.146667a34.133333 34.133333 0 0 1-34.133333-34.133334V318.634667A241.152 241.152 0 0 1 496.810667 77.738667h30.378666A241.152 241.152 0 0 1 768 318.634667v41.301333a34.133333 34.133333 0 0 1-68.266667 0v-41.301333a172.8 172.8 0 0 0-172.544-172.629334h-30.378666A172.885333 172.885333 0 0 0 324.266667 318.634667V477.013333a34.133333 34.133333 0 0 1-34.133334 34.133334zM653.397333 794.368H370.602667a34.133333 34.133333 0 0 1 0-68.266667h282.794666a34.133333 34.133333 0 0 1 0 68.266667z" p-id="2460"></path></svg>