<svg t="1706600687566" class="icon" viewBox="0 0 1024 1024" version="1.1" xmlns="http://www.w3.org/2000/svg" p-id="2460" width="200" height="200"><path d="M616.533333 571.733333a178.688 178.688 0 1 1 178.688-178.602666A179.2 179.2 0 0 1 616.533333 571.733333z m0-289.109333a110.421333 110.421333 0 1 0 110.421334 110.506667 110.933333 110.933333 0 0 0-110.421334-110.421334zM917.333333 873.301333H315.733333a34.133333 34.133333 0 0 1-34.133333-34.133333V740.522667c0-91.136 173.226667-152.32 334.933333-152.32s334.933333 61.184 334.933334 152.32v98.645333a34.133333 34.133333 0 0 1-34.133334 34.133333z m-567.466666-68.266666h533.333333v-64.512c-1.792-20.906667-99.328-84.053333-266.666667-84.053334s-264.533333 63.146667-266.581333 84.053334z" p-id="2461"></path><path d="M391.338667 507.221333h-3.754667a178.688 178.688 0 1 1 110.421333-331.861333 34.133333 34.133333 0 1 1-34.645333 58.88 110.421333 110.421333 0 1 0-68.266667 204.8 34.133333 34.133333 0 0 1-3.754666 68.266667zM237.653333 809.557333H106.666667a34.133333 34.133333 0 0 1-34.133334-34.133333V676.778667c0-85.333333 158.208-145.066667 304.810667-151.637334a34.133333 34.133333 0 1 1 3.072 68.266667c-153.002667 6.741333-237.994667 64.682667-239.616 83.541333v64.426667h96.853333a34.133333 34.133333 0 0 1 0 68.266667z m-96.853333-34.133333z" p-id="2462"></path></svg>