<svg t="1706525235785" class="icon" viewBox="0 0 1024 1024" version="1.1" xmlns="http://www.w3.org/2000/svg" p-id="2604" width="200" height="200"><path d="M727.808 946.176A650.666667 650.666667 0 0 1 77.824 296.277333a218.453333 218.453333 0 0 1 307.968-199.253333 34.133333 34.133333 0 0 1 18.602667 21.162667l89.088 248.234666a34.133333 34.133333 0 0 1-1.621334 26.709334A219.733333 219.733333 0 0 1 417.450667 477.866667a360.704 360.704 0 0 0 156.928 143.530666l1.536 0.768a205.824 205.824 0 0 1 70.314666-61.269333 34.133333 34.133333 0 0 1 24.661334-2.901333l222.634666 58.453333a34.133333 34.133333 0 0 1 19.968 14.421333c1.706667 2.645333 3.413333 5.290667 4.949334 8.106667a204.8 204.8 0 0 1-155.306667 306.176 25.6 25.6 0 0 1-3.584 0c-7.253333 0-14.762667 0.682667-22.186667 0.682667zM296.192 146.090667a150.272 150.272 0 0 0-150.101333 150.186666 582.314667 582.314667 0 0 0 581.717333 581.632h7.594667c6.912 0 13.824 0 20.650666-0.597333h1.792a136.533333 136.533333 0 0 0 104.704-198.144l-195.242666-51.2a136.533333 136.533333 0 0 0-47.018667 52.650667 34.133333 34.133333 0 0 1-42.666667 17.066666c-10.581333-3.925333-21.248-8.533333-32.597333-13.738666a429.397333 429.397333 0 0 1-204.8-204.288 34.133333 34.133333 0 0 1-1.109333-26.453334 34.133333 34.133333 0 0 1 18.005333-19.285333 150.698667 150.698667 0 0 0 66.304-58.197333L344.746667 154.112a147.882667 147.882667 0 0 0-48.554667-8.021333z" p-id="2605"></path></svg>