<svg t="1706525303039" class="icon" viewBox="0 0 1024 1024" version="1.1" xmlns="http://www.w3.org/2000/svg" p-id="2749" width="200" height="200"><path d="M512 946.602667A434.517333 434.517333 0 1 1 819.2 819.2a433.152 433.152 0 0 1-307.2 127.402667zM512 145.066667a366.933333 366.933333 0 1 0 259.157333 107.776A363.946667 363.946667 0 0 0 512 145.066667z" p-id="2750"></path><path d="M512 720.213333m-42.752 0a42.752 42.752 0 1 0 85.504 0 42.752 42.752 0 1 0-85.504 0Z" p-id="2751"></path><path d="M512 641.450667a34.133333 34.133333 0 0 1-34.133333-34.133334V507.221333A46.336 46.336 0 0 1 524.202667 460.8a62.208 62.208 0 0 0 0-124.416h-24.405334a62.293333 62.293333 0 0 0-62.122666 62.208V401.066667a34.133333 34.133333 0 0 1-68.266667 0v-2.56a130.56 130.56 0 0 1 130.389333-130.218667h24.405334A130.474667 130.474667 0 0 1 546.133333 527.36v79.957333a34.133333 34.133333 0 0 1-34.133333 34.133334z" p-id="2752"></path></svg>