<svg t="1706525399968" class="icon" viewBox="0 0 1024 1024" version="1.1" xmlns="http://www.w3.org/2000/svg" p-id="3042" width="200" height="200"><path d="M638.378667 397.653333H385.621333a34.133333 34.133333 0 0 1-34.133333-34.133333V110.933333a34.133333 34.133333 0 0 1 34.133333-34.133333h252.757334a34.133333 34.133333 0 0 1 34.133333 34.133333v252.586667a34.133333 34.133333 0 0 1-34.133333 34.133333z m-218.624-68.266666h184.490666V145.066667H419.754667zM368.810667 947.2H115.968a34.133333 34.133333 0 0 1-34.133333-34.133333V660.48a34.133333 34.133333 0 0 1 34.133333-34.133333h252.842667a34.133333 34.133333 0 0 1 34.133333 34.133333V913.066667a34.133333 34.133333 0 0 1-34.133333 34.133333z m-218.709334-68.266667h184.576V694.613333H150.101333zM908.032 947.2H655.189333a34.133333 34.133333 0 0 1-34.133333-34.133333V660.48a34.133333 34.133333 0 0 1 34.133333-34.133333h252.842667a34.133333 34.133333 0 0 1 34.133333 34.133333V913.066667a34.133333 34.133333 0 0 1-34.133333 34.133333z m-218.709333-68.266667h184.576V694.613333H689.322667z" p-id="3043"></path><path d="M783.872 694.784a34.133333 34.133333 0 0 1-34.133333-34.133333V561.322667h-471.04v99.328a34.133333 34.133333 0 1 1-68.266667 0V527.189333a34.133333 34.133333 0 0 1 34.133333-34.133333h539.306667a34.133333 34.133333 0 0 1 34.133333 34.133333v133.461334a34.133333 34.133333 0 0 1-34.133333 34.133333z" p-id="3044"></path><path d="M512 561.322667a34.133333 34.133333 0 0 1-34.133333-34.133334V363.52a34.133333 34.133333 0 1 1 68.266666 0v163.669333a34.133333 34.133333 0 0 1-34.133333 34.133334z" p-id="3045"></path></svg>